<svg width="20" height="21" viewBox="0 0 20 21" fill="none" xmlns="http://www.w3.org/2000/svg">
<g id="Frame">
<path id="Vector" d="M10 4.62169C12.0025 4.62169 12.24 4.62919 13.0308 4.66502C13.7617 4.69835 14.1592 4.82085 14.4233 4.92335C14.7733 5.05919 15.0233 5.22169 15.2858 5.48419C15.5483 5.74669 15.7108 5.99669 15.8467 6.34669C15.9492 6.61085 16.0717 7.00835 16.105 7.73919C16.1408 8.53002 16.1483 8.76752 16.1483 10.77C16.1483 12.7725 16.1408 13.01 16.105 13.8009C16.0717 14.5317 15.9492 14.9292 15.8467 15.1934C15.7108 15.5434 15.5483 15.7934 15.2858 16.0559C15.0233 16.3184 14.7733 16.4809 14.4233 16.6167C14.1592 16.7192 13.7617 16.8417 13.0308 16.875C12.24 16.9109 12.0033 16.9184 10 16.9184C7.99667 16.9184 7.76 16.9109 6.96917 16.875C6.23833 16.8417 5.84083 16.7192 5.57667 16.6167C5.22667 16.4809 4.97667 16.3184 4.71417 16.0559C4.45167 15.7934 4.28917 15.5434 4.15333 15.1934C4.05083 14.9292 3.92833 14.5317 3.895 13.8009C3.85917 13.01 3.85167 12.7725 3.85167 10.77C3.85167 8.76752 3.85917 8.53002 3.895 7.73919C3.92833 7.00835 4.05083 6.61085 4.15333 6.34669C4.28917 5.99669 4.45167 5.74669 4.71417 5.48419C4.97667 5.22169 5.22667 5.05919 5.57667 4.92335C5.84083 4.82085 6.23833 4.69835 6.96917 4.66502C7.76 4.62919 7.9975 4.62169 10 4.62169ZM10 3.27002C7.96333 3.27002 7.7075 3.27835 6.9075 3.31502C6.10917 3.35169 5.56417 3.47835 5.0875 3.66335C4.59417 3.85502 4.17583 4.11169 3.75917 4.52919C3.3425 4.94585 3.08583 5.36419 2.89417 5.85752C2.70833 6.33419 2.58167 6.87919 2.545 7.67752C2.50833 8.47752 2.5 8.73335 2.5 10.77C2.5 12.8067 2.50833 13.0625 2.545 13.8625C2.58167 14.6609 2.70833 15.2059 2.89333 15.6834C3.085 16.1767 3.34167 16.595 3.75833 17.0117C4.175 17.4284 4.59333 17.685 5.08667 17.8767C5.56333 18.0617 6.10917 18.1892 6.9075 18.225C7.7075 18.2617 7.96333 18.27 10 18.27C12.0367 18.27 12.2925 18.2617 13.0925 18.225C13.8908 18.1884 14.4358 18.0617 14.9133 17.8767C15.4067 17.685 15.825 17.4284 16.2417 17.0117C16.6583 16.595 16.915 16.1767 17.1067 15.6834C17.2917 15.2067 17.4192 14.6609 17.455 13.8625C17.4917 13.0625 17.5 12.8067 17.5 10.77C17.5 8.73335 17.4917 8.47752 17.455 7.67752C17.4183 6.87919 17.2917 6.33419 17.1067 5.85669C16.915 5.36335 16.6583 4.94502 16.2417 4.52835C15.825 4.11169 15.4067 3.85502 14.9133 3.66335C14.4367 3.47835 13.8908 3.35085 13.0925 3.31502C12.2925 3.27835 12.0367 3.27002 10 3.27002ZM10 6.91835C7.87333 6.91835 6.14833 8.64252 6.14833 10.77C6.14833 12.8975 7.87333 14.6217 10 14.6217C12.1267 14.6217 13.8517 12.8975 13.8517 10.77C13.8517 8.64252 12.1267 6.91835 10 6.91835ZM10 13.27C8.61917 13.27 7.5 12.1509 7.5 10.77C7.5 9.38919 8.61917 8.27002 10 8.27002C11.3808 8.27002 12.5 9.38919 12.5 10.77C12.5 12.1509 11.3808 13.27 10 13.27ZM14.0033 5.86669C13.5067 5.86669 13.1033 6.27002 13.1033 6.76669C13.1033 7.26335 13.5067 7.66669 14.0033 7.66669C14.5 7.66669 14.9033 7.26335 14.9033 6.76669C14.9033 6.27002 14.5008 5.86669 14.0033 5.86669Z" fill="white"/>
</g>
</svg>
