<svg width="20" height="21" viewBox="0 0 20 21" fill="none" xmlns="http://www.w3.org/2000/svg">
<g id="Frame">
<path id="Vector" d="M18.525 5.70685C17.9117 5.97852 17.2525 6.16268 16.5608 6.24518C17.2667 5.82185 17.8092 5.15185 18.0642 4.35352C17.4033 4.74518 16.6717 5.03018 15.8925 5.18352C15.27 4.51852 14.3808 4.10352 13.3975 4.10352C11.5092 4.10352 9.97834 5.63435 9.97834 7.52268C9.97834 7.79102 10.0083 8.05185 10.0667 8.30185C7.225 8.15935 4.70584 6.79852 3.01917 4.72935C2.725 5.23435 2.55584 5.82185 2.55584 6.44852C2.55584 7.63518 3.15917 8.68102 4.07667 9.29435C3.51584 9.27685 2.98917 9.12268 2.5275 8.86685C2.5275 8.88102 2.5275 8.89518 2.5275 8.91018C2.5275 10.5668 3.70584 11.9493 5.27084 12.2627C4.98417 12.341 4.68167 12.3827 4.37 12.3827C4.15 12.3827 3.93584 12.361 3.72667 12.321C4.16167 13.6793 5.425 14.6677 6.92084 14.696C5.75084 15.6127 4.27584 16.1593 2.67417 16.1593C2.39834 16.1593 2.12584 16.1435 1.85834 16.1118C3.37167 17.0818 5.16917 17.6477 7.1 17.6477C13.3892 17.6477 16.8292 12.4377 16.8292 7.91852C16.8292 7.77018 16.8258 7.62268 16.8192 7.47602C17.4875 6.99518 18.0667 6.39268 18.525 5.70685Z" fill="white"/>
</g>
</svg>
