<svg width="20" height="21" viewBox="0 0 20 21" fill="none" xmlns="http://www.w3.org/2000/svg">
<g id="Frame">
<path id="Vector" d="M18.1667 7.43751C18.1667 7.43751 18.0042 6.28918 17.5042 5.78335C16.8708 5.11918 16.16 5.11585 15.8342 5.07751C13.5017 4.90918 10.0033 4.90918 10.0033 4.90918H9.99582C9.99582 4.90918 6.49749 4.90918 4.16499 5.07751C3.83999 5.11668 3.12999 5.12001 2.49582 5.78335C1.99582 6.28918 1.83332 7.43751 1.83332 7.43751C1.83332 7.43751 1.66666 8.78668 1.66666 10.135V11.3992C1.66666 12.7475 1.83332 14.0967 1.83332 14.0967C1.83332 14.0967 1.99582 15.245 2.49582 15.7508C3.12999 16.415 3.96249 16.3933 4.33332 16.4633C5.66666 16.5908 9.99999 16.6308 9.99999 16.6308C9.99999 16.6308 13.5025 16.6258 15.8342 16.4567C16.16 16.4175 16.87 16.4142 17.5042 15.7508C18.0042 15.245 18.1667 14.0967 18.1667 14.0967C18.1667 14.0967 18.3333 12.7483 18.3333 11.3992V10.135C18.3333 8.78668 18.1667 7.43751 18.1667 7.43751ZM8.27916 12.9317L8.27832 8.24835L12.7817 10.5983L8.27916 12.9317Z" fill="white"/>
</g>
</svg>
